<?xml version="1.0" standalone="no"?>
<!DOCTYPE svg PUBLIC "-//W3C//DTD SVG 20010904//EN"
 "http://www.w3.org/TR/2001/REC-SVG-20010904/DTD/svg10.dtd">
<svg version="1.0" xmlns="http://www.w3.org/2000/svg"
 width="96.000000pt" height="96.000000pt" viewBox="0 0 96.000000 96.000000"
 preserveAspectRatio="xMidYMid meet">
<metadata>
Created by potrace 1.14, written by Peter Selinger 2001-2017
</metadata>
<g transform="translate(0.000000,96.000000) scale(0.100000,-0.100000)"
fill="#000000" stroke="none">
<path d="M500 693 l0 -188 130 130 129 130 -27 24 c-37 33 -138 79 -189 86
l-43 6 0 -188z"/>
<path d="M650 605 l-125 -125 178 0 178 0 -5 53 c-6 57 -69 197 -89 197 -7 0
-68 -57 -137 -125z"/>
<path d="M645 321 l120 -120 24 27 c30 35 79 138 83 177 l3 30 -175 3 -175 2
120 -119z"/>
<path d="M338 293 l-118 -118 33 -22 c47 -32 116 -61 165 -68 l42 -6 0 166 c0
91 -1 165 -3 165 -1 0 -55 -53 -119 -117z"/>
<path d="M500 246 l0 -168 43 7 c52 8 187 72 187 88 0 7 -52 64 -115 127
l-115 115 0 -169z"/>
</g>
</svg>
